<svg width="20" height="16" viewBox="0 0 20 16" fill="none" xmlns="http://www.w3.org/2000/svg">
<path d="M16.1363 0.519729C16.4292 0.226836 16.9041 0.226838 17.197 0.519731C17.4899 0.812624 17.4899 1.2875 17.197 1.58039L15.2733 3.50406C18.111 5.35232 20 7.98938 20 7.98938C20 7.98938 15.5228 14.2394 10 14.2394C8.4668 14.2394 7.01419 13.7577 5.71558 13.0618L3.29056 15.4868C2.99767 15.7797 2.5228 15.7797 2.2299 15.4868C1.93701 15.1939 1.93701 14.719 2.2299 14.4262L4.40021 12.2559C1.74508 10.4255 0 7.98938 0 7.98938C0 7.98938 4.47715 1.73938 10 1.73938C11.393 1.73938 12.7195 2.137 13.9244 2.73166L16.1363 0.519729ZM12.7945 3.86161C11.8945 3.47506 10.9532 3.23938 10 3.23938C7.7818 3.23938 5.62795 4.51574 3.90923 5.99973C3.07511 6.71993 2.39567 7.44402 1.92443 7.98938C2.39567 8.53474 3.07511 9.25883 3.90923 9.97903C4.40038 10.4031 4.92706 10.8102 5.48062 11.1754L7.04354 9.61252C6.69975 9.0709 6.50065 8.42839 6.50065 7.73938C6.50065 5.80638 8.06765 4.23938 10.0007 4.23938C10.6897 4.23938 11.3322 4.43848 11.8738 4.78227L12.7945 3.86161ZM6.83084 11.9465C7.84276 12.4333 8.91366 12.7394 10 12.7394C12.2182 12.7394 14.3721 11.463 16.0908 9.97903C16.9249 9.25883 17.6043 8.53474 18.0756 7.98938C17.6043 7.44402 16.9249 6.71993 16.0908 5.99973C15.5021 5.49145 14.8624 5.00752 14.1865 4.5909L12.9395 5.83784C13.2945 6.38534 13.5007 7.03829 13.5007 7.73938C13.5007 9.67238 11.9336 11.2394 10.0007 11.2394C9.29956 11.2394 8.64661 11.0332 8.09911 10.6783L6.83084 11.9465ZM10.0007 5.73938C10.2715 5.73938 10.5297 5.79321 10.7653 5.89076L8.15203 8.50403C8.05448 8.26847 8.00065 8.01021 8.00065 7.73938C8.00065 6.63481 8.89608 5.73938 10.0007 5.73938ZM11.8354 6.942L9.20327 9.57411C9.44757 9.68042 9.71722 9.73938 10.0007 9.73938C11.1052 9.73938 12.0007 8.84395 12.0007 7.73938C12.0007 7.45595 11.9417 7.1863 11.8354 6.942Z" fill="#131927"/>
<path d="M16.1363 0.519729C16.4292 0.226836 16.9041 0.226838 17.197 0.519731C17.4899 0.812624 17.4899 1.2875 17.197 1.58039L15.2733 3.50406C18.111 5.35232 20 7.98938 20 7.98938C20 7.98938 15.5228 14.2394 10 14.2394C8.4668 14.2394 7.01419 13.7577 5.71558 13.0618L3.29056 15.4868C2.99767 15.7797 2.5228 15.7797 2.2299 15.4868C1.93701 15.1939 1.93701 14.719 2.2299 14.4262L4.40021 12.2559C1.74508 10.4255 0 7.98938 0 7.98938C0 7.98938 4.47715 1.73938 10 1.73938C11.393 1.73938 12.7195 2.137 13.9244 2.73166L16.1363 0.519729ZM12.7945 3.86161C11.8945 3.47506 10.9532 3.23938 10 3.23938C7.7818 3.23938 5.62795 4.51574 3.90923 5.99973C3.07511 6.71993 2.39567 7.44402 1.92443 7.98938C2.39567 8.53474 3.07511 9.25883 3.90923 9.97903C4.40038 10.4031 4.92706 10.8102 5.48062 11.1754L7.04354 9.61252C6.69975 9.0709 6.50065 8.42839 6.50065 7.73938C6.50065 5.80638 8.06765 4.23938 10.0007 4.23938C10.6897 4.23938 11.3322 4.43848 11.8738 4.78227L12.7945 3.86161ZM6.83084 11.9465C7.84276 12.4333 8.91366 12.7394 10 12.7394C12.2182 12.7394 14.3721 11.463 16.0908 9.97903C16.9249 9.25883 17.6043 8.53474 18.0756 7.98938C17.6043 7.44402 16.9249 6.71993 16.0908 5.99973C15.5021 5.49145 14.8624 5.00752 14.1865 4.5909L12.9395 5.83784C13.2945 6.38534 13.5007 7.03829 13.5007 7.73938C13.5007 9.67238 11.9336 11.2394 10.0007 11.2394C9.29956 11.2394 8.64661 11.0332 8.09911 10.6783L6.83084 11.9465ZM10.0007 5.73938C10.2715 5.73938 10.5297 5.79321 10.7653 5.89076L8.15203 8.50403C8.05448 8.26847 8.00065 8.01021 8.00065 7.73938C8.00065 6.63481 8.89608 5.73938 10.0007 5.73938ZM11.8354 6.942L9.20327 9.57411C9.44757 9.68042 9.71722 9.73938 10.0007 9.73938C11.1052 9.73938 12.0007 8.84395 12.0007 7.73938C12.0007 7.45595 11.9417 7.1863 11.8354 6.942Z" stroke="black"/>
</svg>
