<svg width="57" height="58" viewBox="0 0 57 58" fill="none" xmlns="http://www.w3.org/2000/svg">
<path fill-rule="evenodd" clip-rule="evenodd" d="M28.2995 43.1894C28.2995 50.9794 21.9846 57.2943 14.1945 57.2943C6.4046 57.2943 0.0895691 50.9794 0.0895691 43.1894C0.0895691 35.4239 6.36505 29.1241 14.1214 29.0847C6.36531 29.0449 0.0900843 22.7452 0.0900843 14.9799C0.0900843 7.1898 6.40511 0.874898 14.195 0.874898C21.9553 0.874898 28.2518 7.14175 28.2997 14.8907C28.3475 7.14149 34.6441 0.874512 42.4044 0.874512C50.1945 0.874512 56.5094 7.18941 56.5094 14.9795C56.5094 22.7677 50.1972 29.0817 42.4096 29.0844C50.1972 29.0871 56.5094 35.4011 56.5094 43.1894C56.5094 50.9794 50.1945 57.2943 42.4044 57.2943C34.6144 57.2943 28.2995 50.9794 28.2995 43.1894ZM42.4044 29.0422C34.6239 29.0422 28.3109 22.7545 28.2627 14.9795C28.215 22.7301 21.9415 29.0031 14.1945 29.0425C21.9691 29.0823 28.2598 35.4002 28.2625 43.1894C28.2652 35.3757 34.5958 29.0422 42.4044 29.0422Z" fill="#27A577"/>
</svg>
