<svg width="20" height="15" viewBox="0 0 20 15" fill="none" xmlns="http://www.w3.org/2000/svg">
<path fill-rule="evenodd" clip-rule="evenodd" d="M10 14.0272C4.47715 14.0272 0 7.27043 0 7.27043C0 7.27043 4.47715 0.513672 10 0.513672C15.5228 0.513672 20 7.27043 20 7.27043C20 7.27043 15.5228 14.0272 10 14.0272ZM3.90923 9.4214C3.07511 8.6428 2.39567 7.86001 1.92443 7.27043C2.39567 6.68085 3.07511 5.89805 3.90923 5.11946C5.62795 3.51514 7.7818 2.13529 10 2.13529C12.2182 2.13529 14.3721 3.51514 16.0908 5.11946C16.9249 5.89805 17.6043 6.68085 18.0756 7.27043C17.6043 7.86001 16.9249 8.6428 16.0908 9.4214C14.3721 11.0257 12.2182 12.4056 10 12.4056C7.7818 12.4056 5.62795 11.0257 3.90923 9.4214ZM12.0007 7.00016C12.0007 8.19429 11.1052 9.16232 10.0007 9.16232C8.89608 9.16232 8.00065 8.19429 8.00065 7.00016C8.00065 5.80603 8.89608 4.838 10.0007 4.838C11.1052 4.838 12.0007 5.80603 12.0007 7.00016ZM13.5007 7.00016C13.5007 9.08988 11.9336 10.7839 10.0007 10.7839C8.06765 10.7839 6.50065 9.08988 6.50065 7.00016C6.50065 4.91043 8.06765 3.21637 10.0007 3.21637C11.9336 3.21637 13.5007 4.91043 13.5007 7.00016Z" fill="#131927"/>
</svg>
